<svg xmlns="http://www.w3.org/2000/svg" xmlns:xlink="http://www.w3.org/1999/xlink" width="1280" zoomAndPan="magnify" viewBox="0 0 960 599.999999" height="800" preserveAspectRatio="xMidYMid meet" version="1.0"><defs><clipPath id="2a3989f710"><path d="M 0 224 L 900 224 L 900 376 L 0 376 Z M 0 224 " clip-rule="nonzero"/></clipPath><clipPath id="e94c1badbb"><path d="M 566.457031 268.039062 C 571.496094 265.820312 584.058594 266.78125 592.960938 266.058594 C 593.230469 266.539062 592.480469 266.628906 591.734375 266.691406 C 591.164062 268.160156 597.9375 264.859375 596.828125 267.648438 C 601.507812 267.828125 609.421875 266.449219 612.03125 267.679688 C 606.964844 267.859375 601.894531 268.039062 596.859375 268.21875 C 592.480469 267.257812 591.011719 268.609375 586.726562 268.007812 C 586.066406 267.917969 589.933594 266.898438 590.503906 267.289062 C 588.195312 265.671875 581.867188 267.648438 574.042969 267.230469 C 573.863281 268.488281 578.539062 267.378906 580.371094 267.648438 C 581.539062 269.238281 570.65625 267.648438 566.457031 268.039062 Z M 602.707031 255.296875 C 605.074219 254.066406 592.570312 255.296875 588.792969 255.207031 C 588.703125 254.847656 588.585938 254.515625 587.503906 254.667969 C 588.105469 257.125 598.117188 254.847656 602.707031 255.296875 Z M 592.84375 262.613281 C 586.546875 263.183594 583.367188 261.414062 580.21875 263.632812 C 584.058594 263.121094 591.132812 263.992188 592.84375 262.613281 Z M 638.472656 264.921875 C 635.984375 264.5 623.574219 263.332031 616.976562 265.191406 C 624.53125 265.910156 630.078125 267.078125 638.472656 264.921875 Z M 343.757812 260.785156 C 343.789062 261.5625 343.128906 262.042969 342.4375 262.460938 C 346.394531 262.433594 352.210938 258.863281 357.519531 261.351562 C 356.441406 260.84375 353.589844 261.742188 353.742188 261.773438 C 357.699219 262.222656 362.796875 262.371094 366.691406 262.671875 C 370.589844 262.941406 373.289062 263.453125 372.449219 264.742188 C 375.6875 263.152344 382.164062 263.691406 385.042969 263.332031 C 382.824219 263.003906 385.613281 262.730469 386.332031 262.222656 C 377.785156 262.402344 368.882812 262.433594 363.753906 261.621094 C 363.785156 260.84375 365.972656 261.171875 366.273438 260.574219 C 355.78125 259.554688 318.933594 261.382812 343.757812 260.785156 Z M 408.90625 263.363281 C 415.351562 263.722656 436.910156 263.332031 420.210938 262.910156 C 416.703125 262.101562 411.246094 262.941406 407.675781 261.023438 C 402.96875 262.402344 391.21875 260.332031 390.078125 263.453125 C 394.097656 262.222656 414.964844 265.820312 408.90625 263.363281 Z M 550 267.320312 C 544.300781 267.167969 540.613281 266.539062 537.375 268.21875 C 541.183594 267.769531 548.257812 268.667969 550 267.320312 Z M 467.96875 258.535156 C 463.742188 258.925781 458.796875 258.984375 456.667969 260.304688 C 462.214844 260.542969 465.480469 259.703125 467.96875 258.535156 Z M 686.773438 252.539062 C 686.113281 251.429688 680.597656 251.488281 675.378906 251.878906 C 670.132812 252.238281 665.15625 252.929688 665.605469 253.167969 C 672.773438 252.988281 681.4375 251.878906 686.773438 252.539062 Z M 514.53125 260.453125 C 508.113281 259.824219 499.121094 260.453125 493.125 259.613281 C 496.453125 261.351562 509.492188 261.503906 514.53125 260.453125 Z M 732.765625 256.886719 C 738.492188 256.4375 743.886719 255.746094 750.09375 253.769531 C 737.261719 256.195312 722.242188 255.714844 713.308594 258.265625 C 720.980469 257.484375 727.066406 257.367188 732.765625 256.886719 Z M 789.488281 244.292969 C 788.890625 244.5625 788.289062 244.832031 787.71875 245.074219 C 788.558594 244.894531 789.519531 244.742188 789.488281 244.292969 Z M 787.152344 245.191406 C 787.242188 245.191406 787.332031 245.191406 787.449219 245.164062 C 787.539062 245.132812 787.628906 245.101562 787.691406 245.042969 C 787.511719 245.101562 787.332031 245.132812 787.152344 245.191406 Z M 696.90625 254.785156 C 698.554688 253.136719 714.355469 254.007812 710.367188 252.089844 C 710.007812 253.136719 693.757812 252.777344 696.90625 254.785156 Z M 761.726562 246.992188 C 757.648438 247.5625 753.960938 248.160156 752.132812 249.480469 C 759.835938 248.339844 768.472656 247.320312 773.71875 245.222656 C 770.242188 246.003906 765.773438 246.421875 761.726562 246.992188 Z M 802.53125 241.746094 C 798.964844 242.675781 792.1875 242.644531 790.6875 244.113281 C 794.285156 243.304688 801.089844 243.273438 802.53125 241.746094 Z M 821.480469 240.425781 C 832.332031 238.148438 843.125 235.507812 855.746094 233.378906 C 852.597656 232.871094 848.550781 233.082031 844.085938 233.648438 C 839.585938 234.21875 834.550781 235 829.515625 235.898438 C 844.023438 231.882812 860.003906 231.613281 875.207031 228.074219 C 877.542969 227.265625 874.875 225.523438 876.734375 224.65625 C 882.761719 224.175781 884.378906 227.625 890.796875 226.84375 C 889.6875 228.734375 884.769531 229.902344 882.25 231.550781 C 884.828125 229.363281 880.933594 229.78125 879.191406 229.394531 C 876.703125 229.992188 876.015625 230.921875 875.386719 231.851562 C 876.285156 230.082031 870.769531 230.832031 865.132812 231.761719 C 862.105469 235.269531 869.210938 234.21875 871.277344 236.796875 C 869.417969 238.175781 865.3125 239.078125 861.773438 240.097656 C 858.234375 241.117188 855.238281 242.136719 855.71875 244.054688 C 852.78125 244.234375 849.363281 244.832031 845.945312 245.402344 C 842.554688 245.941406 839.167969 246.363281 836.410156 246.332031 C 838.148438 244.234375 842.824219 245.464844 845.882812 244.445312 C 840.785156 243.394531 834.519531 243.214844 827.503906 243.785156 C 823.96875 243.992188 820.25 244.355469 816.382812 244.832031 C 814.464844 245.074219 812.484375 245.34375 810.503906 245.644531 C 808.496094 245.914062 806.457031 246.210938 804.390625 246.480469 C 787.960938 249.03125 769.851562 252.207031 753.78125 253.976562 C 768.742188 250.441406 777.617188 249.332031 787.421875 245.191406 C 799.953125 244.625 810.714844 242.675781 821.480469 240.425781 Z M 843.09375 242.675781 C 846.003906 242.464844 850.742188 244.144531 853.917969 241.503906 C 850.589844 242.046875 844.65625 241.296875 843.09375 242.675781 Z M 778.367188 243.484375 C 782.894531 242.644531 790.898438 241.207031 797.492188 240.785156 C 794.554688 239.105469 776.296875 243.003906 778.367188 243.484375 Z M 723.949219 251.578125 C 720.683594 251.847656 717.382812 252.117188 714.117188 252.359375 C 713.066406 255.175781 723.351562 251.519531 724.101562 253.289062 C 722.0625 253.527344 712.917969 253.859375 716.753906 254.457031 C 726.320312 253.738281 749.074219 251.847656 748.566406 250.980469 C 746.40625 250.890625 741.488281 252.417969 741.1875 251.160156 C 743.496094 249.78125 747.90625 249.089844 750.691406 247.863281 C 746.855469 246.0625 743.46875 250.890625 739.71875 248.972656 C 738.699219 247.5 745.535156 248.851562 744.488281 247.351562 C 738.910156 247.953125 733.335938 248.492188 727.996094 249.179688 C 722.660156 249.808594 717.503906 250.46875 712.738281 251.308594 C 716.214844 251.578125 721.429688 250.800781 723.949219 251.578125 Z M 834.339844 229.632812 C 836.257812 228.882812 838.238281 228.375 840.246094 228.015625 C 842.226562 227.625 844.144531 227.292969 845.945312 227.023438 C 849.511719 226.484375 852.507812 226.035156 853.828125 224.925781 C 846.511719 225.855469 841.355469 225.253906 834.699219 225.433594 C 833.652344 227.265625 832.660156 228.3125 834.339844 229.632812 Z M 639.882812 267.769531 C 635.445312 267.859375 631.789062 268.25 629.808594 269.359375 C 634.246094 269.269531 637.902344 268.847656 639.882812 267.769531 Z M 177.75 340.355469 C 169.535156 339.363281 160.84375 338.074219 155.59375 338.855469 C 162.878906 339.273438 171.605469 340.5625 177.75 340.355469 Z M 130.859375 281.199219 C 135.179688 281.050781 139.375 280.839844 142.554688 279.972656 C 139.015625 280.242188 127.171875 278.382812 128.523438 279.703125 C 130.382812 280.0625 133.199219 280.152344 133.46875 280.992188 C 131.699219 280.691406 128.613281 280.421875 130.859375 281.199219 Z M 98.691406 313.910156 C 90.6875 312.109375 84.570312 312.382812 96.050781 314.058594 C 101.660156 314.71875 110.414062 317 114.070312 316.21875 C 110.742188 316.519531 110.414062 313.371094 109.035156 314.898438 C 109.8125 315.050781 110.535156 315.199219 110.234375 315.648438 C 107.714844 313.492188 103.609375 314.417969 98.691406 313.910156 Z M 892.535156 316.21875 C 892.984375 317.179688 897.03125 315.5 898.019531 316.039062 C 883.390625 321.585938 880.0625 330.820312 884.890625 336.546875 C 876.433594 338.164062 873.824219 340.652344 871.128906 343.261719 C 868.429688 345.839844 865.640625 348.449219 856.828125 349.679688 C 853.648438 350.457031 858.625 350.90625 859.855469 350.847656 C 853.320312 351.835938 845.644531 353.003906 837.339844 354.292969 C 829.0625 355.613281 820.191406 356.753906 811.226562 358.011719 C 793.296875 360.292969 774.917969 362.328125 760.167969 363.289062 C 757.828125 362.359375 760.226562 362.539062 759.925781 360.980469 C 711.089844 364.847656 663.328125 368.085938 616.46875 370.785156 C 569.578125 373.601562 522.625 375.640625 475.914062 374.832031 C 463.234375 374.59375 450.910156 374.203125 438.199219 373.632812 C 380.996094 371.445312 322.109375 368.625 266.226562 362.480469 C 260.410156 361.820312 252.375 361.011719 244.28125 360.351562 C 236.183594 359.691406 227.96875 359.183594 221.855469 358.851562 C 220.324219 358.613281 220.835938 357.683594 220.714844 356.992188 C 217.085938 357.800781 209.292969 356.214844 203.683594 355.914062 C 203.117188 354.953125 216.308594 356.574219 219.515625 355.734375 C 216.1875 354.292969 208.902344 355.222656 199.96875 353.816406 C 202.574219 353.066406 206.863281 353.277344 210.550781 353.125 C 203.296875 351.175781 197.300781 350.726562 190.761719 350.398438 C 184.226562 350.097656 177.121094 349.585938 167.648438 347.910156 C 164.828125 347.847656 165.277344 346.800781 165.25 345.871094 C 155.863281 344.761719 148.21875 344.878906 137.875 343.050781 C 144.382812 341.882812 154.066406 342.273438 164.800781 343.441406 C 175.53125 344.582031 187.285156 346.441406 198.019531 347.21875 C 194.0625 346.320312 189.652344 345.660156 185.007812 344.941406 C 180.359375 344.191406 175.441406 343.53125 170.464844 342.871094 C 160.511719 341.554688 150.230469 340.445312 141.113281 338.824219 C 150.679688 338.945312 160.390625 339.695312 169.507812 340.832031 C 178.621094 341.941406 187.136719 343.472656 194.359375 344.550781 C 195.859375 342.933594 191.574219 343.230469 189.292969 342.902344 C 197.449219 343.140625 219.605469 346.019531 225.570312 347.070312 C 227.070312 346.46875 229.347656 346.078125 231.777344 345.78125 C 234.207031 345.480469 236.753906 345.300781 238.792969 345.300781 C 243.261719 348.027344 261.699219 348.117188 273.691406 349.769531 C 269.613281 347.460938 259.929688 347.160156 251.773438 346.320312 C 251.414062 345.898438 255.011719 345.691406 255.703125 346.050781 C 251.445312 343.890625 240.050781 343.113281 227.96875 342.210938 C 215.917969 341.191406 203.175781 340.292969 196.308594 338.375 L 187.886719 337.535156 L 179.492188 336.546875 C 169.746094 335.4375 178.320312 335.375 183.449219 336.425781 C 194.8125 337.503906 203.265625 338.824219 211.898438 339.335938 C 206.804688 338.703125 199.699219 337.296875 192.472656 335.855469 C 188.84375 335.167969 185.214844 334.328125 181.769531 333.578125 C 178.320312 332.828125 175.054688 332.140625 172.234375 331.597656 C 170.886719 331.359375 152.058594 329.558594 160.691406 329.621094 C 165.847656 329.589844 171.457031 330.519531 177.183594 331.417969 C 182.90625 332.320312 188.722656 333.25 194.269531 332.949219 C 189.863281 332.199219 183.957031 328.929688 178.921875 330.070312 C 173.972656 328.179688 167.617188 326.742188 160.421875 325.542969 C 153.257812 324.3125 145.25 323.503906 137.066406 322.363281 C 128.882812 321.285156 120.515625 320.296875 112.542969 319.15625 C 108.554688 318.585938 104.6875 318.019531 101 317.328125 C 97.3125 316.578125 93.832031 315.800781 90.597656 314.960938 C 88.199219 314.417969 77.882812 313.191406 81.722656 312.859375 C 102.019531 317.148438 123.695312 320.054688 145.761719 323.144531 C 142.375 321.40625 135.746094 320.507812 129.210938 319.605469 C 129.300781 318.199219 143.121094 319.785156 133.378906 317.867188 C 136.257812 317.957031 139.734375 318.226562 143.664062 318.617188 C 147.589844 319.007812 151.96875 319.335938 156.523438 319.847656 C 165.667969 320.804688 175.683594 322.035156 184.828125 323.203125 C 180 321.644531 173.105469 320.144531 165.25 318.765625 C 161.320312 318.078125 157.183594 317.417969 152.925781 316.757812 C 150.796875 316.429688 148.667969 316.128906 146.511719 315.800781 C 144.382812 315.4375 142.222656 315.078125 140.09375 314.75 C 123.035156 311.902344 106.875 309.441406 100.9375 307.34375 C 95.484375 306.65625 89.605469 305.695312 85.46875 305.90625 C 80.972656 303.65625 90.507812 305.515625 93.292969 306.054688 C 87.328125 303.148438 88.257812 303.957031 80.851562 302.1875 C 84 300.449219 92.785156 305.246094 101.210938 305.636719 C 88.765625 304.945312 103.066406 307.675781 106.394531 305.84375 C 104.835938 305.367188 99.289062 303.714844 93.863281 302.636719 C 94.222656 301.40625 99.289062 303.296875 101.570312 303.355469 C 92.753906 299.578125 71.019531 297.089844 63.882812 294.632812 C 61.214844 294.570312 53.988281 292.355469 60.195312 293.402344 C 71.199219 295.140625 89.785156 300.386719 94.523438 298.648438 C 89.15625 297.03125 83.28125 295.472656 77.042969 293.972656 C 73.925781 293.222656 70.75 292.472656 67.480469 291.785156 C 64.242188 291.0625 60.914062 290.375 57.617188 289.59375 C 44.335938 286.539062 30.542969 283.839844 17.980469 281.589844 C 10.964844 280.480469 8.328125 278.503906 16.84375 280.75 C 18.851562 280.992188 15.972656 279.492188 18.339844 279.910156 C 32.820312 281.921875 45.953125 284.617188 59.894531 287.738281 C 66.878906 289.207031 74.105469 290.613281 81.8125 292.113281 C 89.515625 293.582031 97.640625 295.171875 106.574219 296.550781 C 103.9375 294.601562 93.023438 294.664062 90.324219 292.683594 C 92.394531 292.714844 99.140625 293.644531 106.753906 294.753906 C 114.371094 295.769531 122.855469 297.152344 128.34375 298.53125 C 125.402344 297.121094 130.589844 298.320312 137.425781 299.699219 C 140.84375 300.386719 144.683594 301.136719 148.101562 301.585938 C 151.519531 301.976562 154.546875 302.15625 156.34375 301.769531 C 153.257812 301.136719 149.75 300.507812 146 299.699219 C 142.253906 298.890625 138.207031 298.078125 134.007812 297.359375 C 125.644531 295.890625 116.710938 294.691406 108.226562 294.453125 C 96.773438 290.765625 81.902344 286.566406 65.140625 282.878906 C 56.777344 280.902344 47.960938 278.832031 38.878906 277.003906 C 29.792969 275.144531 20.378906 273.554688 10.996094 271.695312 C 11.324219 271.277344 12.375 271.398438 12.496094 270.828125 C 6.230469 269.476562 -16.109375 264.082031 -2.195312 266.359375 C 17.5 270.109375 72.007812 282.941406 97.882812 286.296875 C 97.492188 286.867188 95.332031 286.265625 95.183594 287.015625 C 101.929688 288.753906 103.726562 287.347656 109.214844 288.125 C 112.421875 289.234375 104.117188 288.15625 102.738281 288.277344 C 109.964844 291.8125 119.738281 290.285156 125.644531 290.496094 C 132.871094 290.675781 143.003906 292.953125 152.355469 294.300781 C 161.710938 295.621094 170.226562 296.339844 174.0625 293.972656 C 178.589844 298.410156 183.027344 293.851562 191.78125 296.101562 C 192.203125 297.988281 185.9375 295.832031 185.277344 297.0625 C 184.886719 298.648438 191.8125 297 187.734375 297.960938 C 197.898438 297.179688 208.480469 298.351562 219.695312 299.878906 C 225.300781 300.597656 231.027344 301.46875 236.964844 301.976562 C 242.871094 302.457031 248.957031 302.726562 255.222656 302.515625 C 248.65625 301.078125 240.140625 300.207031 231.207031 299.070312 C 222.273438 297.898438 212.949219 296.699219 204.734375 295.050781 C 205.425781 293.824219 211 295.441406 213.667969 295.351562 C 209.082031 293.582031 202.304688 292.535156 194.871094 291.753906 C 187.433594 290.882812 179.339844 290.074219 172.113281 289.054688 C 169.597656 288.753906 167.078125 288.457031 164.53125 288.15625 C 161.410156 287.855469 162.460938 287.195312 164.589844 287.585938 C 168.785156 288.097656 173.015625 288.605469 177.210938 289.117188 C 181.050781 288.664062 190.042969 290.734375 196.28125 290.164062 C 199.128906 290.136719 197.957031 291.425781 199.9375 291.695312 C 205.363281 291.574219 212.050781 292.203125 218.976562 292.984375 C 216.039062 291.003906 207.851562 290.824219 201.375 290.074219 C 201.046875 287.648438 204.042969 290.585938 207.761719 290.136719 C 209.261719 288.335938 203.925781 288.847656 201.554688 288.367188 C 207.371094 287.375 213.578125 289.863281 219.304688 289.535156 C 209.230469 286.085938 193.222656 286.6875 181.4375 285.546875 C 183.925781 286.476562 188.066406 287.136719 191.691406 287.554688 C 195.320312 287.945312 198.46875 288.066406 199.007812 288.125 C 197.027344 288.574219 194.390625 288.726562 191.394531 288.546875 C 188.394531 288.367188 185.007812 287.945312 181.527344 287.464844 C 174.542969 286.476562 167.046875 285.21875 161.082031 284.859375 C 162.519531 283.6875 167.019531 284.378906 171.304688 284.917969 C 170.914062 283.570312 165.128906 283.929688 162.550781 283.269531 C 167.917969 282.488281 174.574219 283.058594 181.917969 283.988281 C 185.605469 284.46875 189.445312 284.976562 193.402344 285.488281 C 197.359375 285.90625 201.464844 286.265625 205.574219 286.449219 C 193.101562 283.238281 181.019531 284.46875 171.726562 281.46875 C 167.558594 281.171875 179.550781 281.230469 184.347656 282.429688 C 184.917969 281.5 183.476562 281.230469 181.980469 280.960938 C 184.855469 280.871094 188.304688 281.082031 192.113281 281.46875 C 195.949219 281.832031 200.148438 282.21875 204.523438 282.757812 C 213.277344 283.75 222.691406 284.976562 231.117188 285.519531 C 222.992188 281.980469 205.8125 281.621094 192.261719 279.910156 C 175.710938 278.140625 184.585938 277.992188 196.101562 279.730469 C 188.003906 278.050781 179.820312 276.734375 171.664062 275.625 C 163.511719 274.453125 155.355469 273.554688 147.410156 272.085938 C 151.335938 270.136719 160.542969 272.265625 171.425781 273.316406 C 169.265625 271.785156 164.199219 271.21875 159.042969 270.648438 C 167.707031 270.855469 179.25 272.386719 191.304688 274.066406 C 203.386719 275.59375 216.039062 277.03125 226.769531 277.511719 C 213.550781 275.863281 201.707031 272.714844 191.722656 273.40625 C 190.582031 270.738281 184.796875 273.433594 188.214844 270.648438 C 180.75 270.167969 172.59375 269.628906 164.140625 269.089844 C 159.914062 268.816406 155.625 268.546875 151.308594 268.21875 C 147.019531 267.800781 142.703125 267.378906 138.414062 266.898438 C 129.839844 265.96875 121.417969 264.859375 113.5625 263.542969 C 105.707031 262.222656 98.449219 260.332031 92.183594 258.355469 C 85.800781 256.796875 101.75 258.804688 102.257812 258.894531 C 109.515625 260.0625 117.730469 260.964844 126.421875 262.042969 C 135.117188 263.121094 144.351562 264.261719 153.738281 265.460938 C 163.152344 266.449219 172.746094 267.5 182.1875 268.609375 C 186.894531 269.179688 191.574219 269.71875 196.128906 270.257812 C 200.71875 270.765625 205.214844 271.246094 209.589844 271.726562 C 205.933594 269.988281 196.667969 270.347656 190.882812 269.207031 C 189.921875 268.488281 192.652344 268.789062 196.160156 269.179688 C 199.636719 269.566406 203.894531 270.109375 205.964844 270.199219 C 201.828125 269.058594 197.480469 268.21875 192.953125 267.289062 C 188.425781 266.390625 183.71875 265.582031 178.832031 264.800781 C 173.945312 264.050781 168.90625 263.300781 163.71875 262.492188 C 158.535156 261.683594 153.195312 260.933594 147.769531 259.765625 C 147.859375 258.894531 155.234375 260.003906 149.179688 258.804688 C 157.183594 258.65625 164.378906 259.105469 172.054688 259.972656 C 179.730469 260.785156 187.914062 261.894531 197.957031 262.402344 C 194.722656 260.785156 185.996094 260.785156 180.628906 259.765625 C 169.355469 258.175781 183.746094 259.253906 188.15625 260.09375 C 197.03125 261.414062 205.484375 261.921875 215.738281 262.792969 C 225.992188 263.570312 238.042969 264.679688 254.292969 265.878906 C 253.875 264.53125 248.148438 265.160156 245.597656 264.621094 C 261.789062 265.640625 280.167969 263.660156 298.304688 265.492188 C 298.097656 267.980469 290.691406 266.601562 285.683594 266.480469 C 297.675781 267.859375 312.816406 269.117188 327.117188 269.148438 C 341.449219 269.058594 354.941406 267.949219 363.605469 265.160156 C 375.328125 265.878906 381.023438 265.609375 393.738281 265.96875 C 396.945312 266.03125 395.265625 266.449219 394.964844 267.167969 C 409.957031 266.449219 427.613281 266.988281 444.972656 267.859375 C 462.332031 268.636719 479.421875 269.207031 493.152344 268.398438 C 480.773438 267.109375 471.808594 267.828125 459.125 266.75 C 460.382812 265.789062 464.941406 266.328125 465.421875 264.980469 C 473.847656 267.140625 486.769531 267.320312 499.808594 267.230469 C 512.851562 267.109375 525.984375 266.960938 534.796875 268.910156 C 522.503906 267.890625 514.472656 268.128906 494.382812 268.367188 C 493.933594 269.359375 495.371094 269.449219 496.933594 269.476562 C 486.289062 271.15625 474.597656 268.636719 462.875 270.199219 C 468.808594 271.90625 475.523438 272.355469 482.449219 272.417969 C 489.375 272.476562 496.480469 272.175781 503.257812 272.296875 C 521.246094 272.6875 537.585938 273.253906 557.644531 272.984375 C 554.976562 272.144531 550.957031 271.964844 546.222656 272.117188 C 559.171875 270.617188 584.265625 273.433594 598.089844 270.015625 C 603.035156 271.578125 613.257812 271.335938 623.152344 270.828125 C 633.046875 270.257812 642.582031 269.449219 646.207031 269.867188 C 647.648438 268.9375 651.425781 268.9375 651.125 267.320312 C 661.769531 267.800781 679.9375 266.898438 688.691406 264.679688 C 682.246094 264.140625 666.476562 264.621094 653.554688 265.460938 C 665.246094 262.222656 683.144531 262.28125 700.863281 259.824219 C 700.535156 260.632812 697.777344 260.511719 695.949219 260.753906 C 718.492188 260.152344 744.128906 259.523438 763.765625 255.265625 C 763.945312 253.679688 759.207031 257.367188 759.988281 254.546875 C 766.285156 254.277344 768.710938 252.660156 774.5 252.207031 C 774.4375 253.289062 770.421875 253.046875 769.792969 253.949219 C 778.277344 253.109375 786.160156 252.296875 793.835938 251.789062 C 797.644531 251.488281 801.390625 251.1875 805.078125 250.890625 C 808.765625 250.621094 812.425781 250.351562 816.050781 249.988281 C 819.679688 249.628906 823.277344 249.269531 826.933594 248.941406 C 830.5625 248.550781 834.160156 248.011719 837.847656 247.5 C 845.195312 246.511719 852.597656 244.953125 860.425781 243.15625 C 865.3125 244.292969 874.574219 241.957031 880.152344 242.464844 C 876.253906 243.992188 880.660156 244.054688 875.476562 243.664062 C 873.796875 246.570312 877.425781 248.460938 880.722656 250.738281 C 883.960938 252.988281 886.929688 255.746094 883.660156 260.722656 C 888.1875 260.933594 886.238281 262.941406 889.804688 264.441406 C 881.53125 266.601562 887.796875 271.277344 881.800781 273.707031 C 882.402344 274.246094 884.167969 273.855469 885.730469 273.617188 C 887.289062 273.34375 888.667969 273.226562 888.488281 274.394531 C 886.027344 275.5625 888.90625 277.933594 887.617188 281.230469 C 888.757812 282.128906 891.304688 281.832031 894.242188 281.230469 C 894.214844 283.359375 888.816406 284.707031 886.269531 286.328125 C 894.035156 286.027344 888.964844 290.945312 896.941406 291.304688 C 894.871094 296.699219 897.570312 299.878906 898.921875 303.238281 C 899.609375 304.914062 899.941406 306.65625 899.160156 308.753906 C 898.382812 310.640625 896.460938 313.160156 892.535156 316.21875 Z M 230.488281 292.832031 C 230.070312 291.785156 232.496094 291.542969 230.636719 291.09375 C 228.75 292.445312 217.625 289.625 217.894531 291.003906 C 220.203125 292.261719 226.199219 292.261719 230.488281 292.832031 Z M 234.265625 293.191406 C 231.65625 293.554688 220.203125 291.902344 223.984375 293.941406 C 225.839844 292.773438 233.515625 294.992188 234.265625 293.191406 Z M 194.539062 306.144531 C 186.085938 305.664062 175.144531 303.265625 170.375 303.296875 C 170.015625 303.988281 168.246094 304.226562 171.515625 304.585938 C 177.121094 305.726562 180.78125 305.933594 184.558594 306.113281 C 186.445312 306.203125 188.363281 306.265625 190.554688 306.414062 C 192.773438 306.535156 195.261719 306.714844 198.320312 307.074219 C 204.554688 307.523438 197.179688 306.085938 194.539062 306.144531 Z M 396.164062 271.726562 C 390.019531 271.066406 383.332031 273.195312 383.511719 273.734375 C 388.488281 273.433594 392.808594 272.804688 396.164062 271.726562 Z M 412.503906 273.824219 C 408.667969 274.183594 401.679688 272.835938 399.914062 274.125 C 403.71875 273.855469 410.734375 275.144531 412.503906 273.824219 Z M 416.3125 270.945312 C 426.6875 270.527344 438.410156 270.648438 442.785156 268.910156 C 433.070312 270.046875 424.976562 268.910156 416.3125 270.945312 Z M 447.792969 273.015625 C 441.734375 273.433594 431.003906 271.667969 428.875 273.976562 C 431.933594 273.433594 455.558594 274.15625 447.792969 273.015625 Z M 359.917969 264.320312 C 349.902344 264.742188 333.652344 263.210938 333.382812 268.429688 C 339.710938 266.507812 360.425781 265.851562 359.917969 264.320312 Z M 133.410156 337.117188 C 137.695312 337.683594 145.941406 337.503906 145.28125 337.027344 C 142.132812 337.027344 135.988281 334.988281 134.847656 336.15625 C 137.15625 336.753906 134.21875 336.695312 133.410156 337.117188 Z M 115.332031 281.890625 C 120.816406 283.390625 134.1875 285.398438 134.457031 282.878906 C 129.480469 283.570312 120.246094 280.089844 115.332031 281.890625 Z M 171.753906 291.8125 C 173.042969 290.734375 178.921875 292.472656 179.550781 291.003906 L 171.964844 290.074219 C 172.355469 291.15625 169.925781 291.363281 171.753906 291.8125 Z M 526.042969 270.707031 C 523.824219 270.257812 522.085938 268.816406 521.007812 270.796875 C 522.835938 272.054688 524.066406 270.015625 524.8125 271.308594 L 534.917969 271.15625 C 534.320312 269.867188 528.683594 271.007812 526.042969 270.707031 Z M 147.378906 291.753906 C 148.640625 291.933594 149.898438 292.113281 151.1875 292.261719 C 167.917969 293.941406 154.15625 289.957031 147.378906 291.753906 Z M 125.824219 289.234375 C 132.71875 289.566406 143.601562 291.695312 144.980469 290.253906 C 139.105469 290.226562 130.261719 288.304688 125.824219 289.234375 Z M 873.375 348 C 874.484375 347.339844 876.824219 347.21875 879.761719 346.949219 C 882.699219 346.679688 886.238281 346.230469 889.714844 344.878906 C 888.847656 340.714844 871.996094 346.621094 873.375 348 Z M 131.96875 255.625 C 127.351562 254.90625 123.367188 254.636719 120.636719 255.175781 C 125.164062 255.804688 130.410156 256.886719 131.96875 255.625 Z M -40.210938 245.164062 C -47.859375 243.09375 -51.546875 241.625 -60 240.726562 C -52.023438 242.496094 -45.96875 246.601562 -40.210938 245.164062 Z M 20.917969 237.609375 C 15.371094 234.910156 5.660156 236.167969 20.917969 237.609375 Z M 167.078125 257.457031 C 161.203125 257.125 152.296875 254.9375 148.398438 255.65625 C 154.214844 256.195312 163.152344 258.292969 167.078125 257.457031 Z M 322.199219 265.640625 C 315.277344 265.519531 306.609375 264.441406 304.542969 266.898438 C 308.859375 265.671875 321.570312 268.878906 322.199219 265.640625 Z M 51.738281 296.941406 C 53.628906 297.601562 57.105469 298.621094 60.585938 299.339844 C 64.09375 300.027344 67.570312 300.480469 69.519531 300.179688 C 67.898438 299.488281 64.332031 298.621094 60.703125 297.960938 C 57.105469 297.242188 53.480469 296.730469 51.738281 296.941406 Z M 44.246094 322.605469 C 45.953125 323.804688 55.21875 323.832031 58.304688 325.871094 C 58.996094 323.925781 46.105469 322.214844 44.246094 322.605469 Z M -44.710938 267.890625 C -35.953125 269.117188 -22.105469 274.453125 -21.863281 271.875 C -29.898438 271.605469 -39.824219 266.898438 -44.710938 267.890625 Z M 45.144531 290.316406 C 50.121094 290.464844 54.078125 293.613281 56.507812 292.535156 C 55.667969 291.484375 42.085938 288.816406 45.144531 290.316406 Z M -3.066406 270.167969 C -7.921875 268.910156 -12.03125 267.800781 -16.015625 266.929688 C -17.996094 266.507812 -19.976562 266.121094 -21.984375 265.820312 C -23.960938 265.460938 -26 265.160156 -28.128906 264.949219 C -44.679688 261.351562 -27.890625 265.25 -19.554688 267.648438 C -13.648438 269.269531 -6.09375 273.464844 -3.457031 271.847656 C -10.980469 270.046875 -6.722656 269.957031 -3.066406 270.167969 Z M -3.066406 270.167969 " clip-rule="nonzero"/></clipPath><linearGradient x1="20.012502" gradientTransform="matrix(2.998126, 0, 0, 2.998126, -59.999999, 224.59596)" y1="25.087" x2="320.179959" gradientUnits="userSpaceOnUse" y2="25.087" id="378907c28c"><stop stop-opacity="1" stop-color="rgb(97.648621%, 65.092468%, 94.842529%)" offset="0"/><stop stop-opacity="1" stop-color="rgb(97.512817%, 65.138245%, 94.882202%)" offset="0.015625"/><stop stop-opacity="1" stop-color="rgb(97.244263%, 65.231323%, 94.963074%)" offset="0.03125"/><stop stop-opacity="1" stop-color="rgb(96.974182%, 65.322876%, 95.043945%)" offset="0.046875"/><stop stop-opacity="1" stop-color="rgb(96.704102%, 65.415955%, 95.124817%)" offset="0.0625"/><stop stop-opacity="1" stop-color="rgb(96.435547%, 65.507507%, 95.205688%)" offset="0.078125"/><stop stop-opacity="1" stop-color="rgb(96.165466%, 65.600586%, 95.285034%)" offset="0.09375"/><stop stop-opacity="1" stop-color="rgb(95.895386%, 65.692139%, 95.365906%)" offset="0.109375"/><stop stop-opacity="1" stop-color="rgb(95.626831%, 65.785217%, 95.446777%)" offset="0.125"/><stop stop-opacity="1" stop-color="rgb(95.35675%, 65.87677%, 95.527649%)" offset="0.140625"/><stop stop-opacity="1" stop-color="rgb(95.08667%, 65.969849%, 95.608521%)" offset="0.15625"/><stop stop-opacity="1" stop-color="rgb(94.816589%, 66.061401%, 95.689392%)" offset="0.171875"/><stop stop-opacity="1" stop-color="rgb(94.548035%, 66.15448%, 95.768738%)" offset="0.1875"/><stop stop-opacity="1" stop-color="rgb(94.277954%, 66.246033%, 95.849609%)" offset="0.203125"/><stop stop-opacity="1" stop-color="rgb(94.007874%, 66.339111%, 95.930481%)" offset="0.21875"/><stop stop-opacity="1" stop-color="rgb(93.739319%, 66.430664%, 96.011353%)" offset="0.234375"/><stop stop-opacity="1" stop-color="rgb(93.469238%, 66.523743%, 96.092224%)" offset="0.25"/><stop stop-opacity="1" stop-color="rgb(93.199158%, 66.615295%, 96.17157%)" offset="0.265625"/><stop stop-opacity="1" stop-color="rgb(92.930603%, 66.708374%, 96.252441%)" offset="0.28125"/><stop stop-opacity="1" stop-color="rgb(92.660522%, 66.799927%, 96.333313%)" offset="0.296875"/><stop stop-opacity="1" stop-color="rgb(92.390442%, 66.893005%, 96.414185%)" offset="0.3125"/><stop stop-opacity="1" stop-color="rgb(92.121887%, 66.984558%, 96.495056%)" offset="0.328125"/><stop stop-opacity="1" stop-color="rgb(91.851807%, 67.077637%, 96.575928%)" offset="0.34375"/><stop stop-opacity="1" stop-color="rgb(91.581726%, 67.169189%, 96.655273%)" offset="0.359375"/><stop stop-opacity="1" stop-color="rgb(91.311646%, 67.262268%, 96.736145%)" offset="0.375"/><stop stop-opacity="1" stop-color="rgb(91.043091%, 67.353821%, 96.817017%)" offset="0.390625"/><stop stop-opacity="1" stop-color="rgb(90.77301%, 67.446899%, 96.897888%)" offset="0.40625"/><stop stop-opacity="1" stop-color="rgb(90.50293%, 67.538452%, 96.97876%)" offset="0.421875"/><stop stop-opacity="1" stop-color="rgb(90.234375%, 67.631531%, 97.058105%)" offset="0.4375"/><stop stop-opacity="1" stop-color="rgb(89.964294%, 67.723083%, 97.138977%)" offset="0.453125"/><stop stop-opacity="1" stop-color="rgb(89.694214%, 67.816162%, 97.219849%)" offset="0.46875"/><stop stop-opacity="1" stop-color="rgb(89.425659%, 67.907715%, 97.30072%)" offset="0.484375"/><stop stop-opacity="1" stop-color="rgb(89.155579%, 68.000793%, 97.381592%)" offset="0.5"/><stop stop-opacity="1" stop-color="rgb(88.885498%, 68.092346%, 97.460938%)" offset="0.515625"/><stop stop-opacity="1" stop-color="rgb(88.616943%, 68.185425%, 97.541809%)" offset="0.53125"/><stop stop-opacity="1" stop-color="rgb(88.346863%, 68.276978%, 97.622681%)" offset="0.546875"/><stop stop-opacity="1" stop-color="rgb(88.076782%, 68.370056%, 97.703552%)" offset="0.5625"/><stop stop-opacity="1" stop-color="rgb(87.806702%, 68.461609%, 97.784424%)" offset="0.578125"/><stop stop-opacity="1" stop-color="rgb(87.538147%, 68.554688%, 97.865295%)" offset="0.59375"/><stop stop-opacity="1" stop-color="rgb(87.268066%, 68.64624%, 97.944641%)" offset="0.609375"/><stop stop-opacity="1" stop-color="rgb(86.997986%, 68.739319%, 98.025513%)" offset="0.625"/><stop stop-opacity="1" stop-color="rgb(86.729431%, 68.830872%, 98.106384%)" offset="0.640625"/><stop stop-opacity="1" stop-color="rgb(86.459351%, 68.92395%, 98.187256%)" offset="0.65625"/><stop stop-opacity="1" stop-color="rgb(86.18927%, 69.015503%, 98.268127%)" offset="0.671875"/><stop stop-opacity="1" stop-color="rgb(85.920715%, 69.108582%, 98.347473%)" offset="0.6875"/><stop stop-opacity="1" stop-color="rgb(85.650635%, 69.200134%, 98.428345%)" offset="0.703125"/><stop stop-opacity="1" stop-color="rgb(85.380554%, 69.293213%, 98.509216%)" offset="0.71875"/><stop stop-opacity="1" stop-color="rgb(85.112%, 69.384766%, 98.590088%)" offset="0.734375"/><stop stop-opacity="1" stop-color="rgb(84.841919%, 69.477844%, 98.670959%)" offset="0.75"/><stop stop-opacity="1" stop-color="rgb(84.571838%, 69.569397%, 98.751831%)" offset="0.765625"/><stop stop-opacity="1" stop-color="rgb(84.301758%, 69.662476%, 98.831177%)" offset="0.78125"/><stop stop-opacity="1" stop-color="rgb(84.033203%, 69.754028%, 98.912048%)" offset="0.796875"/><stop stop-opacity="1" stop-color="rgb(83.763123%, 69.847107%, 98.99292%)" offset="0.8125"/><stop stop-opacity="1" stop-color="rgb(83.493042%, 69.93866%, 99.073792%)" offset="0.828125"/><stop stop-opacity="1" stop-color="rgb(83.224487%, 70.031738%, 99.154663%)" offset="0.84375"/><stop stop-opacity="1" stop-color="rgb(82.954407%, 70.123291%, 99.234009%)" offset="0.859375"/><stop stop-opacity="1" stop-color="rgb(82.684326%, 70.21637%, 99.31488%)" offset="0.875"/><stop stop-opacity="1" stop-color="rgb(82.415771%, 70.307922%, 99.395752%)" offset="0.890625"/><stop stop-opacity="1" stop-color="rgb(82.145691%, 70.401001%, 99.476624%)" offset="0.90625"/><stop stop-opacity="1" stop-color="rgb(81.87561%, 70.492554%, 99.557495%)" offset="0.921875"/><stop stop-opacity="1" stop-color="rgb(81.60553%, 70.585632%, 99.638367%)" offset="0.9375"/><stop stop-opacity="1" stop-color="rgb(81.336975%, 70.677185%, 99.717712%)" offset="0.953125"/><stop stop-opacity="1" stop-color="rgb(81.066895%, 70.770264%, 99.798584%)" offset="0.96875"/><stop stop-opacity="1" stop-color="rgb(80.796814%, 70.861816%, 99.879456%)" offset="0.984375"/><stop stop-opacity="1" stop-color="rgb(80.529785%, 70.953369%, 99.960327%)" offset="1"/></linearGradient></defs><g clip-path="url(#2a3989f710)"><g clip-path="url(#e94c1badbb)"><path fill="url(#378907c28c)" d="M 0 224.175781 L 0 375.640625 L 899.941406 375.640625 L 899.941406 224.175781 Z M 0 224.175781 " fill-rule="nonzero"/></g></g></svg>